<?xml version="1.0" encoding="utf-8"?>
<!-- Generator: Adobe Illustrator 21.0.0, SVG Export Plug-In . SVG Version: 6.00 Build 0)  -->
<svg version="1.1" id="Layer_1" xmlns="http://www.w3.org/2000/svg" xmlns:xlink="http://www.w3.org/1999/xlink" x="0px" y="0px"
	 viewBox="0 0 4000 3000" style="enable-background:new 0 0 4000 3000;" xml:space="preserve">
<style type="text/css">
	.st0{fill:#009D9E;}
	.st1{fill:#666666;}
</style>
<g>
	<g>
		<g>
			<path class="st0" d="M1309.7,1437c-4.2,6.3-8.1,12-11.7,17.1c-27,38.9-53.8,78-80.2,117.4v0c-0.1,0.1-0.2,0.2-0.2,0.3l-11.1,16.5
				c-11.1,16.6-22.6,33-34,49.3c-25.8,36.9-57.8,103.5-71.6,133.3c-6.7,14.5-12.6,29.5-16.8,44.9c-22.4,81.5-0.9,145,30,190.5
				c1.7,2.5,3.4,5,5.2,7.4c36.8,50.4,83.5,76.4,86.4,78c-37.1-15.7-69-31.7-96.3-48.1c-1.2-0.8-2.5-1.5-3.7-2.3
				c-243.5-148.7-107.5-322.5-5.9-483.1c74.9-118.4,141.8-215.1,160.9-251.6c4.8-9.3,9.8-18.5,14.8-27.7
				c8.8-16.3,16.6-32.1,23.4-47.2c0,0,0,0,0,0c32.1-71.4,42.8-130.2,42.3-177.1v-0.3c-1.1-98.9-51.8-145.9-56.6-150
				c59.6,41.6,96,88.3,115.7,136.6c3.1,7.4,5.7,14.9,8,22.5c3.3,10.8,5.9,21.8,7.7,32.7c0,0,0,0,0,0c0.7,4.4,1.4,8.8,1.9,13.2
				C1433.4,1239.3,1355.2,1369.6,1309.7,1437z"/>
		</g>
		<path class="st0" d="M1612.8,1573.8c-0.4,9.3-6.8,13-6.8,13s-4.4,2.9-18.2,7.1c-4.2,1.3-9.4,2.7-15.5,4.3
			c-6.2,1.5-11.3,5.2-14.7,10.1c-2.5,3.6-4.1,7.8-4.5,12.1c-0.1,1.5-0.3,2.9-0.6,4.3c-0.9,4.6-1.1,20.4-3.1,38.9
			c-0.4,4-1,8-1.6,12.2c0,0,0,0,0,0c-1.7-0.3-62.3-0.6-158.7-61.5c0.6,1.2,37.2,80.3,142.4,113.4c-2.3,14.4-3.5,29-3.6,43.6
			c-0.1,7.3,0,12.9,0,13v0c0.5,10.2,2.3,61.9-10.5,71.9c-14.2,11.1-51.9,19.2-182.4-33.4c-71.8-28.9-101.1-4.7-112.3,23.8
			c0,0,0,0,0,0c-1.2,2.7-2.2,5.6-3,8.5c0,0,0,0,0,0c-1.3,4.7-2.1,9.5-2.5,14.4c0,0,0,0,0,0c-0.8,9.9-0.1,19.9,1.2,28.9
			c1.1,7.4,2.6,14.2,4.1,19.7c2.3,8.5,4.3,13.9,4.3,13.9s39.7,97.9,119.1,145.8c6.2,3.7,12.6,7.1,19.2,10.2c5.9,2.7,12,5.1,18.2,7.2
			c0,0-3.7,0.3-10.2,0.4c-3.3,0-6.5,0-9.8-0.1c-83.6-2.8-153.5-53.2-186.8-123c-10.5-22.1-17.4-46.1-19.9-71.2
			c-2.1-21.3-1.1-43.4,3.5-65.7c7.9-38.1,22.1-82.3,47.2-125.1c0,0,11.8-20.6,28.5-49.2c21.2-36.4,50.2-85.8,72.8-122.1
			c37.2-60.2,73.7-120.8,109.1-182.1l2.6-4.4c0,0,63.8-107.4,56.9-209.6c-1.4-21.5-6-42.7-14.9-62.7c0,0,0,0,0-0.1v0
			c-5.7-12.7-13.1-24.9-22.6-36.2c-1.3-1.5-2.6-3-3.9-4.5c0.3,0.2,0.8,0.7,1.5,1.3c0.3,0.2,0.5,0.5,0.8,0.7c0.5,0.5,1.1,1.1,1.8,1.7
			c4,3.7,10.4,9.9,18.1,18.1c7.5,7.9,16.3,17.7,25.4,28.9c18.5,22.8,38.2,51.5,51.1,82.5c8.7,20.8,14.2,42.7,14.2,64.5l-1,90
			l-0.8,71l0,4.4l-0.2,11.1v35.5c0,9.5,1.9,18.9,5.9,27.5c6.5,14.2,19.1,36.9,40.5,59.6C1609.2,1553.8,1613.2,1565.8,1612.8,1573.8z
			"/>
	</g>
	<path class="st1" d="M1740.7,1887.9l132.4-555c24.3-4.8,48.9-8.1,73.1-9.9c26.6-1.9,51.8-2.9,74.8-2.9
		c67.4,0,119.6,13.2,154.9,39.2c34.8,25.7,51.8,61.5,51.8,109.5c0,38.4-7.4,71.4-21.9,98.1c-14.5,26.7-34.9,48.8-60.6,65.7
		c-26,17.2-57.7,29.8-94.1,37.6c-36.9,7.9-78.2,12-122.7,12h-53.3l-49.1,205.7H1740.7z M2011,1389.1c-10.6,0-21,0.3-30.8,0.9
		c-9.7,0.6-19.5,1.4-29.1,2.6l-7,0.8l-51.5,219.8h55.3c23.9,0,47.3-2,69.5-6c22.7-4.1,43.1-11.1,60.8-20.8
		c18.2-10,32.9-23.9,43.8-41.2c11-17.5,16.6-39.8,16.6-66.2c0-32.2-12.3-55.7-36.4-69.9C2079.6,1395.8,2049,1389.1,2011,1389.1z"/>
	<path class="st1" d="M2454.8,1490.8l-2.4,9.9l-95.7,387.3h-81l98.8-399.6c0,0,0,0,0.1,0C2385.9,1492.3,2423.4,1497.4,2454.8,1490.8
		z"/>
	<path class="st1" d="M2725,1893.6c-51,0-97.1-17.1-129.7-48.1c-34.6-32.9-53-79.5-53-134.6c0-69.1,24.1-131.9,68-176.9
		c43.3-44.5,103.3-68.9,168.8-68.9c32.7,0,61.3,5.5,84.9,16.4c23.6,10.9,42.4,27.2,55.9,48.6l13.5,21.4l15.5-81.6h82l-83,417.9
		h-77.2l12.5-62.4l-22.3,19.8C2824.9,1877.4,2779.2,1893.6,2725,1893.6z M2786.5,1532c-93.2,0-160.9,73.2-160.9,174
		c0,75.1,47,119.9,125.6,119.9c93.2,0,160.9-73.2,160.9-174C2912.1,1576.8,2865.1,1532,2786.5,1532z"/>
	<path class="st0" d="M2437.7,1407.7c-29.7,0-53.8-24.1-53.8-53.8c0-29.7,24.1-53.8,53.8-53.8c29.7,0,53.8,24.1,53.8,53.8
		C2491.5,1383.5,2467.3,1407.7,2437.7,1407.7z"/>
</g>
</svg>
